<?xml version="1.0" standalone="no"?>
<!DOCTYPE svg PUBLIC "-//W3C//DTD SVG 20010904//EN"
 "http://www.w3.org/TR/2001/REC-SVG-20010904/DTD/svg10.dtd">
<svg version="1.0" xmlns="http://www.w3.org/2000/svg"
 width="352.000000pt" height="352.000000pt" viewBox="0 0 352.000000 352.000000"
 preserveAspectRatio="xMidYMid meet">
<metadata>
Created by potrace 1.11, written by Peter Selinger 2001-2013
</metadata>
<g transform="translate(0.000000,352.000000) scale(0.100000,-0.100000)"
fill="#000000" stroke="none">
<path d="M485 3491 c-251 -61 -440 -268 -473 -519 -10 -76 -8 -2405 2 -2462
40 -219 207 -407 429 -484 62 -21 64 -21 1312 -21 l1250 0 73 24 c217 71 380
254 423 476 6 31 10 503 10 1257 0 1199 0 1207 -21 1285 -60 222 -227 385
-454 443 -67 17 -146 18 -1276 18 -1098 0 -1211 -2 -1275 -17z"/>
</g>
</svg>
